<svg xmlns="http://www.w3.org/2000/svg" fill="none" viewBox="0 0 350 350" id="Terminal--Streamline-Material-Pro" height="350" width="350">
  <desc>
    Terminal Streamline Icon: https://streamlinehq.com
  </desc>
  <g id="terminal">
    <path id="terminal_2" fill="currentColor" d="M58.333333333333336 291.6666666666667c-8.020833333333334 0 -14.887104166666665 -2.8554166666666667 -20.598958333333336 -8.567708333333334C32.02252083333333 277.3866666666667 29.166666666666668 270.52083333333337 29.166666666666668 262.5V87.5c0 -8.020833333333334 2.855854166666667 -14.887104166666665 8.567708333333334 -20.598958333333336C43.44622916666667 61.1891875 50.31250000000001 58.333333333333336 58.333333333333336 58.333333333333336h233.33333333333334c8.020833333333334 0 14.886666666666667 2.855854166666667 20.598958333333336 8.567708333333334C317.9779166666667 72.61289583333334 320.83333333333337 79.47916666666667 320.83333333333337 87.5v175c0 8.020833333333334 -2.8554166666666667 14.886666666666667 -8.567708333333334 20.598958333333336C306.55333333333334 288.81125000000003 299.6875 291.6666666666667 291.6666666666667 291.6666666666667H58.333333333333336Zm0 -29.166666666666668h233.33333333333334V116.66666666666667H58.333333333333336v145.83333333333334Zm51.04166666666667 -14.583333333333334 -20.416666666666668 -20.416666666666668L126.51041666666669 189.58333333333334l-37.91666666666667 -37.91666666666667L109.375 131.25l58.333333333333336 58.333333333333336 -58.333333333333336 58.333333333333336Zm65.625 0v-29.166666666666668h87.5v29.166666666666668h-87.5Z" stroke-width="14.5833"></path>
  </g>
</svg>